:FULLY-SPECIFIED
:FORCE-ALL-JOINTS-BE-3DOF
:DEGREES
238
root 6.3744 15.8565 -25.679 9.02284 34.963 -3.60742
lfemur -33.0793 24.019 -10.5955
ltibia 42.5356 -0 0
lfoot -20.4433 -0.927801 0.211133
ltoes 35.5373 -0 0
rfemur -12.5815 0.757963 1.44288
rtibia 40.3501 -0 0
rfoot -35.2444 -24.6587 0.460444
rtoes 55.3859 -0 0
lowerback -0.231891 -2.78591 1.47911
upperback -1.25531 -3.65861 2.04045
thorax -1.09172 -1.84193 1.28767
lowerneck -9.99255 -4.72521 0.606561
upperneck 2.44134 -6.41464 0.842427
head 2.53464 -3.1485 -0.160686
lclavicle -2.04748e-14 7.33238e-15 8.72222e-31
lhumerus -55.652 -34.6607 121.385
lradius 61.5579 -0 0
lwrist 18.0769 0 0
lhand 9.0578 14.4444 0.591062
lfingers 7.12502 -0 0
lthumb 34.0836 39.9351 -0.00185308
rclavicle -2.04748e-14 7.33238e-15 8.72222e-31
rhumerus -35.2073 -16.0057 -57.6085
rradius 60.2142 -0 0
rwrist 10.6943 0 0
rhand -18.7886 -29.8141 0.727333
rfingers 7.12502 -0 0
rthumb 7.50784 -59.5466 0.700803
239
root 6.41653 15.8791 -25.685 8.97989 35.9677 -3.89102
lfemur -34.3621 24.575 -11.2003
ltibia 43.5496 -0 0
lfoot -20.0128 -0.629407 0.174622
ltoes 35.2242 -0 0
rfemur -12.0088 1.2774 1.809
rtibia 40.0541 -0 0
rfoot -35.4755 -25.8379 0.380447
rtoes 55.2516 -0 0
lowerback -0.157239 -2.82525 1.53138
upperback -1.27524 -3.70845 2.30728
thorax -1.1435 -1.86348 1.53786
lowerneck -9.94577 -4.86204 0.429122
upperneck 2.40403 -6.57136 0.802438
head 2.51422 -3.23113 -0.150801
lclavicle -2.07556e-14 9.23449e-15 7.21552e-31
lhumerus -55.5391 -34.3242 121.521
lradius 61.7646 -0 0
lwrist 17.8782 0 0
lhand 8.19363 14.0344 0.488586
lfingers 7.12502 -0 0
lthumb 33.2915 39.9365 -0.00153218
rclavicle -2.07556e-14 9.23449e-15 7.21552e-31
rhumerus -36.1656 -16.0605 -58.8351
rradius 60.3988 -0 0
rwrist 11.585 0 0
rhand -18.2616 -28.9879 0.601205
rfingers 7.12502 -0 0
rthumb 8.01667 -58.7216 0.579287
240
root 6.45484 15.8996 -25.6904 8.93495 36.8814 -4.15296
lfemur -35.5393 25.0698 -11.7644
ltibia 44.4718 -0 0
lfoot -19.6214 -0.35827 0.139471
ltoes 34.9395 -0 0
rfemur -11.4849 1.74662 2.14655
rtibia 39.7849 -0 0
rfoot -35.6843 -26.91 0.303576
rtoes 55.1294 -0 0
lowerback -0.0893751 -2.86109 1.57887
upperback -1.29357 -3.7537 2.54999
thorax -1.19069 -1.88288 1.76542
lowerneck -9.90285 -4.98635 0.267617
upperneck 2.37017 -6.71392 0.766147
head 2.49563 -3.30627 -0.141785
lclavicle -2.1011e-14 1.09644e-14 5.76427e-31
lhumerus -55.4359 -34.0183 121.646
lradius 61.9526 -0 0
lwrist 17.6975 0 0
lhand 7.40835 13.663 0.39003
lfingers 7.12502 -0 0
lthumb 32.571 39.9378 -0.0012234
rclavicle -2.1011e-14 1.09644e-14 5.76427e-31
rhumerus -37.0361 -16.1275 -59.9499
rradius 60.5666 -0 0
rwrist 12.3951 0 0
rhand -17.7839 -28.2376 0.479913
rfingers 7.12502 -0 0
rthumb 8.47786 -57.9724 0.462424
241
root 6.48904 15.9179 -25.6953 8.88991 37.6967 -4.39021
lfemur -36.5986 25.5024 -12.2793
ltibia 45.295 -0 0
lfoot -19.2723 -0.116487 0.106534
ltoes 34.6854 -0 0
rfemur -11.0149 2.16276 2.4515
rtibia 39.5446 -0 0
rfoot -35.8693 -27.8667 0.231681
rtoes 55.0203 -0 0
lowerback -0.0288307 -2.89313 1.62122
upperback -1.31009 -3.79401 2.76662
thorax -1.23286 -1.90003 1.96853
lowerneck -9.86423 -5.0972 0.123368
upperneck 2.34003 -6.84117 0.73382
head 2.47903 -3.37334 -0.133718
lclavicle -2.12389e-14 1.25084e-14 4.40391e-31
lhumerus -55.3435 -33.7455 121.757
lradius 62.1203 -0 0
lwrist 17.5362 0 0
lhand 6.70804 13.3327 0.297778
lfingers 7.12502 -0 0
lthumb 31.9279 39.9389 -0.000934196
rclavicle -2.12389e-14 1.25084e-14 4.40391e-31
rhumerus -37.812 -16.201 -60.9443
rradius 60.7165 -0 0
rwrist 13.1181 0 0
rhand -17.359 -27.5688 0.366388
rfingers 7.12502 -0 0
rthumb 8.88815 -57.3045 0.353042
242
root 6.51881 15.9338 -25.6995 8.84678 38.4064 -4.59959
lfemur -37.5273 25.872 -12.7362
ltibia 46.0116 -0 0
lfoot -18.9683 0.093912 0.0766513
ltoes 34.4642 -0 0
rfemur -10.6038 2.52306 2.71989
rtibia 39.3354 -0 0
rfoot -36.0294 -28.6994 0.166578
rtoes 54.9254 -0 0
lowerback 0.0238623 -2.92105 1.65807
upperback -1.3246 -3.82907 2.95525
thorax -1.26963 -1.91485 2.14538
lowerneck -9.83038 -5.19362 -0.00230187
upperneck 2.31383 -6.95197 0.705722
head 2.46458 -3.43173 -0.126677
lclavicle -2.14373e-14 1.38526e-14 3.16953e-31
lhumerus -55.2627 -33.5082 121.854
lradius 62.2664 -0 0
lwrist 17.3958 0 0
lhand 6.09869 13.0459 0.214167
lfingers 7.12502 -0 0
lthumb 31.3682 39.9399 -0.000672071
rclavicle -2.14373e-14 1.38526e-14 3.16953e-31
rhumerus -38.4867 -16.2756 -61.8095
rradius 60.8469 -0 0
rwrist 13.7476 0 0
rhand -16.9901 -26.9872 0.263502
rfingers 7.12502 -0 0
rthumb 9.24435 -56.7235 0.253908
